<svg xmlns="http://www.w3.org/2000/svg" xmlns:xlink="http://www.w3.org/1999/xlink" fill="none" version="1.1" width="17" height="17" viewBox="0 0 17 17"><defs><clipPath id="master_svg0_37_25949"><rect x="0" y="0" width="17" height="17" rx="0"/></clipPath></defs><g clip-path="url(#master_svg0_37_25949)"><g><path d="M7.9991284854888915,3.040799253860474C8.275748485488892,2.7641778538604735,8.724238485488891,2.7641778538604735,9.00086848548889,3.040799253860474C9.00086848548889,3.040799253860474,13.959228485488891,7.999133253860474,13.959228485488891,7.999133253860474C14.09202848548889,8.131973253860473,14.166628485488891,8.312133253860473,14.166628485488891,8.500003253860474C14.166628485488891,8.687863253860474,14.09202848548889,8.868033253860474,13.959228485488891,9.000873253860473C13.959228485488891,9.000873253860473,9.00086848548889,13.959233253860473,9.00086848548889,13.959233253860473C8.724238485488891,14.235833253860473,8.275748485488892,14.235833253860473,7.9991284854888915,13.959233253860473C7.722508485488891,13.682633253860473,7.722508485488891,13.234033253860474,7.9991284854888915,12.957433253860474C7.9991284854888915,12.957433253860474,11.748268485488891,9.208333253860474,11.748268485488891,9.208333253860474C11.748268485488891,9.208333253860474,3.5416614854888917,9.208333253860474,3.5416614854888917,9.208333253860474C3.1504594854888914,9.208333253860474,2.8333284854888916,8.891203253860475,2.8333284854888916,8.500003253860474C2.8333284854888916,8.108803253860474,3.1504594854888914,7.791663253860474,3.5416614854888917,7.791663253860474C3.5416614854888917,7.791663253860474,11.748268485488891,7.791663253860474,11.748268485488891,7.791663253860474C11.748268485488891,7.791663253860474,7.9991284854888915,4.042533253860474,7.9991284854888915,4.042533253860474C7.722508485488891,3.765910253860474,7.722508485488891,3.3174212538604735,7.9991284854888915,3.040799253860474C7.9991284854888915,3.040799253860474,7.9991284854888915,3.040799253860474,7.9991284854888915,3.040799253860474Z" fill-rule="evenodd" fill="#3D3D3D" fill-opacity="1"/></g></g></svg>