<svg xmlns="http://www.w3.org/2000/svg" xmlns:xlink="http://www.w3.org/1999/xlink" fill="none" version="1.1" width="24" height="23" viewBox="0 0 24 23"><defs><clipPath id="master_svg0_9_1849"><rect x="0" y="0" width="24" height="23" rx="0"/></clipPath></defs><g clip-path="url(#master_svg0_9_1849)"><g><path d="M22.2195572265625,3.5062500830078127C21.6676572265625,2.2514300830078127,20.3845572265625,1.4360336730078125,18.9635572265625,1.4372109398248125L18.0237572265625,1.4378600640078125C17.6074572265625,1.4338012330078125,17.2676572265625,1.7562270830078126,17.267857226562498,2.1552510830078124C17.268057226562497,2.5542800830078125,17.6081572265625,2.8764100830078125,18.0244572265625,2.8719900830078124L18.9648572265625,2.8719900830078124C19.5047572265625,2.870760083007813,20.0227572265625,3.0767600830078123,20.4031572265625,3.4440200830078127C20.7872572265625,3.8135200830078126,20.9973572265625,4.303840083007812,20.9973572265625,4.825080083007812L20.9973572265625,7.189540083007812L3.0001372265625,7.188890083007813L2.9973372265625002,7.188160083007812L2.9973372265625002,4.825080083007812C2.9983672265625003,3.7478600830078124,3.9092572265625,2.8748100830078123,5.033317226562501,2.8736900830078125L5.9944472265625,2.8804300830078127L5.9998672265625,2.8804300830078127C6.4136972265625,2.8817900830078127,6.7503272265625,2.5614100830078126,6.7517472265625,2.1648230830078123C6.7531772265625,1.7682390830078125,6.4188572265625,1.4456363630078124,6.0050372265625,1.4442699130078125L5.0407672265625,1.4378598930078126L5.0356072265625,1.4378598930078126C3.0828672265624997,1.4371875487078125,1.4993120435625,2.9537100830078122,1.4986575841905,4.825080083007812L1.4986575841905,18.173610083007812C1.4978117945625,20.045310083007813,3.0827372265625,21.562010083007813,5.0357672265625,21.558610083007814L18.9643572265625,21.558610083007814C20.9165572265625,21.562210083007812,22.5000572265625,20.04451008300781,22.4959572265625,18.173610083007812L22.4959572265625,4.825080083007812C22.4973572265625,4.372120083007813,22.4033572265625,3.9235500830078127,22.2195572265625,3.5062500830078127ZM20.4025572265625,19.55221008300781C20.0220572265625,19.918910083007813,19.5040572265625,20.124310083007813,18.9643572265625,20.12241008300781L5.0357672265625,20.12241008300781C4.4952372265625,20.124310083007813,3.9763672265625,19.918910083007813,3.5947472265625,19.55211008300781C3.2101072265625,19.183510083007814,2.9972572265624997,18.694810083007813,2.9972572265624997,18.173510083007812L2.9972572265624997,8.625050083007812L2.9999672265625,8.625050083007812L20.9973572265625,8.625700083007812L20.9973572265625,18.173610083007812C20.9994572265625,18.69081008300781,20.7851572265625,19.187310083007812,20.4025572265625,19.55211008300781L20.4025572265625,19.55221008300781Z" fill="#2279C9" fill-opacity="1" style="mix-blend-mode:passthrough"/></g><g><path d="M9.74932484375,3.593061904296875C10.16315484375,3.593061904296875,10.498624843750001,3.271571904296875,10.498624843750001,2.874981904296875L10.498624843750001,1.437529904296875C10.498624843750001,1.040946904296875,10.16315484375,0.719451904296875,9.74932484375,0.719451904296875C9.33550484375,0.719451904296875,9.00003084375,1.040946904296875,9.00003084375,1.437529904296875L9.00003084375,2.874981904296875C9.00003084375,3.271571904296875,9.33550484375,3.593061904296875,9.74932484375,3.593061904296875ZM14.25358484375,3.593061904296875C14.667414843749999,3.593061904296875,15.00288484375,3.271571904296875,15.00288484375,2.874981904296875L15.00288484375,1.437529904296875C15.00288484375,1.040946904296875,14.667414843749999,0.719451904296875,14.25358484375,0.719451904296875C13.83976484375,0.719451904296875,13.50429484375,1.040946904296875,13.50429484375,1.437529904296875L13.50429484375,2.874981904296875C13.50429484375,3.271571904296875,13.83976484375,3.593061904296875,14.25358484375,3.593061904296875ZM15.00288484375,10.061201904296874L9.00003184375,10.061201904296874C8.58649184375,10.061591904296876,8.25146484375,10.382971904296875,8.25146484375,10.779251904296874C8.25146484375,11.175551904296874,8.58649184375,11.496951904296875,9.00003184375,11.497351904296876L13.58997484375,11.497351904296876C13.35874484375,11.852551904296876,13.098904843749999,12.276651904296875,12.838304843749999,12.751351904296875C12.38254484375,13.581651904296875,12.018474843749999,14.396851904296875,11.756184843749999,15.174151904296876C11.420734843750001,16.168551904296876,11.25063484375,17.107651904296876,11.25063484375,17.965351904296874C11.25063484375,18.361951904296873,11.58611484375,18.683451904296874,11.999934843750001,18.683451904296874C12.41376484375,18.683451904296874,12.74923484375,18.361951904296873,12.74923484375,17.965351904296874C12.74923484375,17.261551904296876,12.89316484375,16.475651904296875,13.177644843749999,15.629251904296876C13.411494843749999,14.932951904296875,13.73949484375,14.197151904296875,14.15232484375,13.442351904296874C14.865134843749999,12.139151904296876,15.590644843749999,11.224851904296875,15.597584843749999,11.216151904296876C15.771104843749999,10.999151904296875,15.80105484375,10.706641904296875,15.67483484375,10.461511904296875C15.54862484375,10.216391904296875,15.288124843750001,10.061201904296874,15.00288484375,10.061201904296874Z" fill="#2279C9" fill-opacity="1" style="mix-blend-mode:passthrough"/></g></g></svg>