<svg xmlns="http://www.w3.org/2000/svg" xmlns:xlink="http://www.w3.org/1999/xlink" fill="none" version="1.1" width="14.73583984375" height="22.7099609375" viewBox="0 0 14.73583984375 22.7099609375"><g><path d="M14.4454,19.395C14.5404,19.785,14.6254,20.19,14.6904,20.605C14.6954,20.64,14.7054,20.675,14.7154,20.715C14.8754,21.76,14.0754,22.71,13.0154,22.71L1.72542,22.71C0.665425,22.71,-0.134575,21.76,0.025425,20.715C0.0304246,20.68,0.0404251,20.65,0.0454247,20.615C0.110425,20.2,0.190425,19.795,0.290425,19.4C0.335425,19.215,0.395426,19.04,0.450425,18.86C0.520425,18.625,0.590425,18.39,0.670425,18.165C0.745425,17.96,0.830425,17.765,0.910425,17.57C0.985426,17.38,1.06543,17.195,1.15043,17.015C1.24543,16.815,1.35043,16.62,1.45543,16.43C1.54043,16.275,1.63043,16.12,1.72043,15.97C1.83543,15.78,1.96043,15.6,2.08543,15.42C2.18043,15.29,2.27543,15.16,2.37543,15.035C2.51043,14.86,2.65043,14.695,2.79543,14.535C2.89543,14.42,3.00543,14.32,3.11043,14.215C3.26543,14.065,3.41543,13.92,3.57543,13.785C3.69043,13.69,3.81043,13.61,3.92543,13.525C4.09043,13.405,4.25043,13.285,4.42043,13.18C4.43043,13.175,4.44043,13.165,4.45043,13.16C4.96543,12.85,5.28543,12.3,5.28543,11.695L5.28543,11.01C5.28543,10.405,4.97043,9.855,4.45043,9.545C4.44043,9.54,4.43043,9.53,4.42043,9.525C4.25043,9.425,4.09043,9.3,3.92543,9.18C3.81043,9.095,3.69043,9.015,3.57543,8.92C3.41543,8.785,3.26043,8.64,3.11043,8.49C3.00043,8.385,2.89543,8.28,2.79043,8.17C2.64543,8.015,2.50543,7.845,2.37043,7.675C2.27043,7.55,2.17543,7.425,2.08043,7.29C1.95543,7.11,1.83043,6.93,1.71543,6.74C1.62543,6.59,1.53543,6.435,1.45043,6.28C1.34543,6.09,1.24043,5.895,1.14543,5.695C1.06043,5.515,0.985426,5.325,0.905426,5.14C0.820425,4.94,0.740426,4.75,0.665425,4.545C0.580425,4.32,0.515425,4.085,0.445426,3.85C0.390425,3.67,0.330426,3.495,0.285425,3.31C0.190425,2.915,0.105425,2.51,0.0404251,2.095C0.0354254,2.06,0.025425,2.03,0.0204253,1.995C-0.139575,0.95,0.660425,0,1.72042,0L13.0154,0C14.0754,0,14.8754,0.95,14.7154,1.995C14.7104,2.03,14.7004,2.06,14.6954,2.095C14.6304,2.505,14.5504,2.91,14.4504,3.305C14.4054,3.49,14.3454,3.665,14.2904,3.845C14.2204,4.08,14.1504,4.315,14.0704,4.54C13.9954,4.745,13.9104,4.94,13.8304,5.135C13.7554,5.325,13.6754,5.51,13.5904,5.69C13.4954,5.89,13.3904,6.085,13.2854,6.275C13.2004,6.43,13.1154,6.585,13.0204,6.735C12.9054,6.925,12.7804,7.11,12.6554,7.285C12.5604,7.415,12.4654,7.545,12.3654,7.67C12.2304,7.84,12.0904,8.005,11.9454,8.165C11.8404,8.275,11.7304,8.38,11.6254,8.485C11.4704,8.635,11.3204,8.78,11.1604,8.915C11.0454,9.01,10.9304,9.09,10.8104,9.175C10.6454,9.295,10.4854,9.415,10.3154,9.52C10.3054,9.525,10.2954,9.535,10.2854,9.54C9.77043,9.85,9.45043,10.4,9.45043,11.005L9.45043,11.69C9.45043,12.295,9.76542,12.845,10.2854,13.155C10.2954,13.16,10.3054,13.17,10.3154,13.175C10.4854,13.275,10.6454,13.4,10.8104,13.52C10.9254,13.605,11.0454,13.685,11.1604,13.78C11.3204,13.915,11.4754,14.06,11.6254,14.21C11.7304,14.315,11.8354,14.42,11.9404,14.53C12.0854,14.69,12.2254,14.86,12.3604,15.03C12.4604,15.155,12.5554,15.28,12.6504,15.415C12.7754,15.595,12.9004,15.775,13.0154,15.965C13.1054,16.115,13.1954,16.27,13.2804,16.425C13.3854,16.615,13.4904,16.81,13.5854,17.01C13.6704,17.19,13.7454,17.38,13.8254,17.565C13.9104,17.765,13.9904,17.955,14.0654,18.16C14.1504,18.385,14.2154,18.62,14.2854,18.855C14.3404,19.035,14.4004,19.21,14.4454,19.395ZM11.3555,21.1L3.38054,21.1C3.07554,21.1,2.94054,20.725,3.17054,20.53L6.81554,17.66C6.88554,17.595,6.93054,17.505,6.93054,17.41L6.93054,8.205C6.93054,8.115,6.89054,8.03,6.82554,7.97L4.66554,6.185C4.45054,5.985,4.59054,5.625,4.88554,5.625L9.84554,5.625C10.1405,5.625,10.2805,5.985,10.0655,6.185L7.88054,7.98C7.81554,8.04,7.77554,8.125,7.77554,8.215L7.77554,17.42C7.77554,17.52,7.81554,17.61,7.89054,17.67L11.5605,20.53C11.7955,20.72,11.6555,21.1,11.3555,21.1Z" fill-rule="evenodd" fill="#FFFFFF" fill-opacity="1" style="mix-blend-mode:passthrough"/></g></svg>