<svg xmlns="http://www.w3.org/2000/svg" xmlns:xlink="http://www.w3.org/1999/xlink" fill="none" version="1.1" width="20.753433227539062" height="20" viewBox="0 0 20.753433227539062 20"><g><path d="M18.3744,1.93333C18.3744,0.864445,17.51,0,16.4411,0L1.93333,0C0.864445,0,0,0.865556,0,1.93333L0,18.0667C0,19.1344,0.865583,20,1.93333,20L16.4411,20C17.5093,20,18.3751,19.1337,18.3745,18.0656L18.3745,13.8267L17.7578,14.4656L16.9433,15.3178L16.9389,15.3256L16.9322,15.3333C16.6356,15.6322,16.4067,15.8644,16.21,16.0733C15.9911,16.3022,15.8111,16.4922,15.6633,16.6444L15.5756,16.7356L15.4422,16.8678C15.3279,16.9782,15.2077,17.0824,15.0822,17.18C14.9367,17.2956,14.7811,17.3933,14.6189,17.4689C14.4944,17.5289,14.3344,17.5967,14.1233,17.68C13.9267,17.7522,13.7222,17.8256,13.5078,17.8989C13.28,17.9733,13.0756,18.0367,12.8833,18.0878C12.6589,18.1489,12.5033,18.1856,12.3811,18.2044L12.3611,18.2067L12.3411,18.21C12.2633,18.2167,12.1889,18.2211,12.1189,18.2211C11.5456,18.2211,11.2267,17.9278,11.0811,17.7433C10.8356,17.4289,10.7478,17.0289,10.8189,16.5622C10.8411,16.4156,10.8767,16.2411,10.9456,15.9933C11.0524,15.6002,11.1665,15.209,11.2878,14.82C11.3567,14.6111,11.4089,14.4678,11.4678,14.3511C11.5973,14.0481,11.7827,13.7721,12.0144,13.5378L12.0489,13.5011L12.2933,13.2433C12.4467,13.0811,12.6356,12.8833,12.8644,12.6478L13.6078,11.88L14.4344,11.0278L16.6233,8.76333L16.6744,8.71L16.65,8.68556L17.2744,8.09L17.3322,8.03L17.3344,8.03222L17.4144,7.95445C17.4922,7.87889,17.5878,7.79111,17.6967,7.68222C17.8023,7.57798,17.9116,7.47755,18.0244,7.38111L18.0378,7.37222L18.0489,7.36111C18.1533,7.27667,18.2633,7.20556,18.3744,7.14667L18.3744,1.93333ZM4.51444,5.00444L13.86,5.00444C14.2891,5.02697,14.6254,5.38144,14.6254,5.81111C14.6254,6.24078,14.2891,6.59525,13.86,6.61778L4.51444,6.61778C4.08537,6.59525,3.74902,6.24078,3.74902,5.81111C3.74902,5.38144,4.08537,5.02697,4.51444,5.00444ZM20.5422,10.1478C20.6128,10.0718,20.6679,9.98275,20.7044,9.88561C20.7384,9.79663,20.755,9.70196,20.7533,9.60672C20.7528,9.44129,20.7215,9.27739,20.6611,9.12339C20.5633,8.9145,20.43,8.71006,20.2578,8.51783C20.0855,8.32561,19.9278,8.19228,19.7833,8.1145C19.622,8.02894,19.4435,7.98072,19.2611,7.97339L19.2333,7.97339C19.0262,7.97477,18.826,8.04779,18.6667,8.18006C18.5933,8.24339,18.4978,8.32895,18.3867,8.43783C18.2778,8.54672,18.18,8.63894,18.0978,8.71672L20.0022,10.6856C20.0511,10.6412,20.1022,10.5923,20.1555,10.5367L20.3233,10.3701C20.3867,10.3067,20.4611,10.2334,20.5422,10.1478ZM4.51444,9.19333L10.6367,9.19333C11.0988,9.16845,11.4873,9.53608,11.4879,9.99883C11.4885,10.4616,11.101,10.8303,10.6389,10.8067L4.51444,10.8067C4.08536,10.7842,3.749,10.4297,3.749,10C3.749,9.57033,4.08536,9.21585,4.51444,9.19333ZM16.2344,14.5923L17.0478,13.7389L19.2444,11.4767L17.34,9.49672L15.1511,11.7612L14.3255,12.6145L13.5811,13.3823C13.2969,13.6762,13.0143,13.9718,12.7333,14.2689C12.6389,14.3656,12.5655,14.4556,12.5144,14.5367C12.4644,14.6167,12.4178,14.7056,12.3755,14.8034C12.3422,14.8667,12.2955,14.9834,12.2422,15.1501C12.1253,15.5258,12.0153,15.9036,11.9122,16.2834C11.8611,16.4701,11.83,16.6112,11.8144,16.7112C11.7878,16.8923,11.8055,17.0223,11.8655,17.1001C11.9122,17.1601,11.9989,17.1889,12.1211,17.1889C12.1575,17.1889,12.1939,17.1867,12.23,17.1823C12.3658,17.1571,12.5004,17.1256,12.6333,17.0878C13.0216,16.981,13.4043,16.8549,13.78,16.7101C13.9644,16.6378,14.1033,16.5789,14.1978,16.5312C14.2959,16.4857,14.3881,16.4282,14.4722,16.3601C14.6453,16.221,14.8086,16.0703,14.9611,15.9089C15.3808,15.4655,15.8053,15.0266,16.2344,14.5923ZM4.51444,13.3844L8.05889,13.3844C8.48796,13.407,8.82432,13.7614,8.82432,14.1911C8.82432,14.6208,8.48796,14.9753,8.05889,14.9978L4.51444,14.9978C4.08537,14.9753,3.74902,14.6208,3.74902,14.1911C3.74902,13.7614,4.08537,13.407,4.51444,13.3844Z" fill-rule="evenodd" fill="#FFFFFF" fill-opacity="1" style="mix-blend-mode:passthrough"/></g></svg>