<svg xmlns="http://www.w3.org/2000/svg" xmlns:xlink="http://www.w3.org/1999/xlink" fill="none" version="1.1" width="17.98699951171875" height="17.986997604370117" viewBox="0 0 17.98699951171875 17.986997604370117"><g><path d="M17.986,6.627C17.986,4.013,15.954,1.893,13.448,1.893C13.256,1.893,13.065,1.906,12.877,1.931C11.91,0.778999,10.368,0,8.91,0C7.479,0,6.07,0.754,5.097,1.929C4.91058,1.90502,4.72353,1.893,4.537,1.893C2.032,1.893,0,4.013,0,6.627C0,8.675,1.257,10.461,3.068,11.107L3.058,13.973L11.508,13.973C12.024,13.973,12.447,14.358,12.447,14.829C12.447,15.299,12.024,15.685,11.507,15.685L3.054,15.685L3.054,15.693C3.0268,15.8246,3.01306,15.9586,3.013,16.093C3.013,17.138,3.823,17.987,4.823,17.987L13.131,17.987C14.143,17.987,14.907,17.272,14.907,16.236L14.906,16.193L14.874,11.123C16.732,10.48,17.987,8.669,17.987,6.627" fill="#FFFFFF" fill-opacity="1" style="mix-blend-mode:passthrough"/></g></svg>