<svg xmlns="http://www.w3.org/2000/svg" xmlns:xlink="http://www.w3.org/1999/xlink" fill="none" version="1.1" width="20" height="17.999998092651367" viewBox="0 0 20 17.999998092651367"><g><path d="M18.6667,18L1.33333,18C0.596954,18,5.96046e-7,17.403,0,16.6667L0,3.33333C5.96046e-7,2.59695,0.596954,2,1.33333,2L4,2L4,3.33333C4,4.4379,4.89543,5.33333,6,5.33333C7.10457,5.33333,8,4.4379,8,3.33333L8,2L11.3333,2L11.3333,3.33333C11.3333,4.4379,12.2288,5.33333,13.3333,5.33333C14.4379,5.33333,15.3333,4.4379,15.3333,3.33333L15.3333,2L18.6667,2C19.403,2,20,2.59695,20,3.33333L20,16.6667C20,17.403,19.403,18,18.6667,18ZM14,12C13.6318,12,13.3333,12.2985,13.3333,12.6667C13.3333,13.0349,13.6318,13.3333,14,13.3333L15.3333,13.3333C15.7015,13.3333,16,13.0349,16,12.6667C16,12.2985,15.7015,12,15.3333,12L14,12ZM9.33333,12C8.96514,12,8.66667,12.2985,8.66667,12.6667C8.66667,13.0349,8.96514,13.3333,9.33333,13.3333L10.6667,13.3333C11.0349,13.3333,11.3333,13.0349,11.3333,12.6667C11.3333,12.2985,11.0349,12,10.6667,12L9.33333,12ZM4.66667,12C4.29848,12,4,12.2985,4,12.6667C4,13.0349,4.29848,13.3333,4.66667,13.3333L6,13.3333C6.36819,13.3333,6.66667,13.0349,6.66667,12.6667C6.66667,12.2985,6.36819,12,6,12L4.66667,12ZM14,8.66667C13.6318,8.66667,13.3333,8.96514,13.3333,9.33333C13.3333,9.70152,13.6318,10,14,10L15.3333,10C15.7012,9.99949,15.9991,9.70116,15.9991,9.33333C15.9991,8.9655,15.7012,8.66718,15.3333,8.66667L14,8.66667ZM9.33333,8.66667C8.96514,8.66667,8.66667,8.96514,8.66667,9.33333C8.66667,9.70152,8.96514,10,9.33333,10L10.6667,10C11.0352,10.0005,11.3343,9.70188,11.3343,9.33333C11.3343,8.96478,11.0352,8.66616,10.6667,8.66667L9.33333,8.66667ZM4.66667,8.66667C4.29848,8.66667,4,8.96514,4,9.33333C4,9.70152,4.29848,10,4.66667,10L6,10C6.36855,10.0005,6.66759,9.70188,6.66759,9.33333C6.66759,8.96478,6.36855,8.66616,6,8.66667L4.66667,8.66667ZM13.3333,4C12.9651,4,12.6667,3.70152,12.6667,3.33333L12.6667,0.666666C12.6667,0.298477,12.9651,0,13.3333,0C13.7015,0,14,0.298476,14,0.666666L14,3.33333C14,3.70152,13.7015,4,13.3333,4ZM6,4C5.63181,4,5.33333,3.70152,5.33333,3.33333L5.33333,0.666666C5.33333,0.298476,5.63181,0,6,0C6.36819,0,6.66666,0.298476,6.66666,0.666666L6.66666,3.33333C6.66666,3.70152,6.36819,4,6,4Z" fill="#FFFFFF" fill-opacity="1" style="mix-blend-mode:passthrough"/></g></svg>