<svg xmlns="http://www.w3.org/2000/svg" xmlns:xlink="http://www.w3.org/1999/xlink" fill="none" version="1.1" width="24" height="24" viewBox="0 0 24 24"><defs><clipPath id="master_svg0_8_03957"><rect x="0" y="0" width="24" height="24" rx="0"/></clipPath></defs><g clip-path="url(#master_svg0_8_03957)"><g><path d="M12,1C5.92487,1,1,5.92487,1,12C1,18.0751,5.92487,23,12,23C18.0751,23,23,18.0751,23,12C23,5.92487,18.0751,1,12,1ZM3,12C3,7.02944,7.02944,3,12,3C16.970599999999997,3,21,7.02944,21,12C21,16.970599999999997,16.970599999999997,21,12,21C7.02944,21,3,16.970599999999997,3,12ZM9,8C8.44772,8,8,8.44772,8,9C8,9.55228,8.44772,10,9,10L9.01,10C9.56228,10,10.01,9.55228,10.01,9C10.01,8.44772,9.56228,8,9.01,8L9,8ZM15,8C14.4477,8,14,8.44772,14,9C14,9.55228,14.4477,10,15,10L15.01,10C15.5623,10,16.009999999999998,9.55228,16.009999999999998,9C16.009999999999998,8.44772,15.5623,8,15.01,8L15,8ZM7.4,13.2C7.84044,12.8697,8.464680000000001,12.9576,8.796859999999999,13.3958L8.8015,13.4018C8.80745,13.4093,8.81877,13.4234,8.83531,13.4431C8.868459999999999,13.4826,8.92219,13.5442,8.995429999999999,13.6206C9.14272,13.7743,9.36407,13.9828,9.65067,14.1913C10.22773,14.6109,11.0255,15,12,15C12.9745,15,13.7723,14.6109,14.3493,14.1913C14.6359,13.9828,14.8573,13.7743,15.0046,13.6206C15.0778,13.5442,15.1315,13.4826,15.1647,13.4431C15.1812,13.4234,15.1925,13.4093,15.1985,13.4018L15.2031,13.3958C15.5353,12.9576,16.159599999999998,12.8697,16.6,13.2C17.0418,13.5314,17.1314,14.1582,16.8,14.6L16.7666,14.6432C16.749299999999998,14.6649,16.726,14.6938,16.6966,14.7288C16.637999999999998,14.7987,16.555,14.8933,16.4486,15.0044C16.2365,15.2257,15.9266,15.5172,15.5257,15.8087C14.7277,16.3891,13.5255,17,12,17C10.47447,17,9.27227,16.3891,8.47433,15.8087C8.07343,15.5172,7.76353,15.2257,7.55145,15.0044C7.445,14.8933,7.36201,14.7987,7.30336,14.7288C7.27401,14.6938,7.25065,14.6649,7.23341,14.6432L7.2,14.6C6.86863,14.1582,6.95817,13.5314,7.4,13.2Z" fill-rule="evenodd" fill="#000000" fill-opacity="1"/></g></g></svg>