<svg xmlns="http://www.w3.org/2000/svg" xmlns:xlink="http://www.w3.org/1999/xlink" fill="none" version="1.1" width="16" height="16" viewBox="0 0 16 16"><defs><clipPath id="master_svg0_37_19017"><rect x="0" y="0" width="16" height="16" rx="0"/></clipPath></defs><g clip-path="url(#master_svg0_37_19017)"><g><path d="M5.249999907226563,15.1999755859375C4.299999907226562,13.1999755859375,4.799999907226562,12.0499755859375,5.549999907226562,10.9999755859375Q6.349999907226563,9.7999755859375,6.549999907226563,8.6499755859375Q7.199999907226562,9.4499755859375,6.949999907226562,10.7499755859375C8.049999907226564,9.4999755859375,8.249999907226563,7.4999755859375,8.099999907226563,6.7499755859375C10.599999907226563,8.4999755859375,11.699999907226562,12.3499755859375,10.249999907226563,15.1499755859375C17.949979907226563,10.7499755859375,12.149979907226562,4.1999755859375,11.149999907226562,3.4999755859375C11.499999907226563,4.2499755859375,11.549999907226562,5.4999755859375,10.849999907226563,6.0999755859375Q9.699999907226562,1.6999755859375,6.849999907226563,0.8499755859375C7.199999907226562,3.0999755859375,5.6499999072265625,5.5499755859375,4.1499999072265625,7.3999755859375C4.099999907226563,6.4999755859375,4.049999907226562,5.8999755859375,3.5499999072265624,4.9999755859375C3.4499999072265624,6.6499755859375,2.1999999072265624,7.9499755859375,1.8499999072265625,9.5999755859375C1.3999999072265625,11.8499755859375,2.1999999072265624,13.4499755859375,5.249999907226563,15.1999755859375Z" fill="#E65512" fill-opacity="1" style="mix-blend-mode:passthrough"/></g></g></svg>