<svg xmlns="http://www.w3.org/2000/svg" xmlns:xlink="http://www.w3.org/1999/xlink" fill="none" version="1.1" width="176" height="95.5" viewBox="0 0 176 95.5"><defs><filter id="master_svg0_22_6409" filterUnits="objectBoundingBox" color-interpolation-filters="sRGB" x="-0.031055900621118012" y="-0.038461538461538464" width="1.062111801242236" height="1.1282051282051282"><feFlood flood-opacity="0" result="BackgroundImageFix"/><feColorMatrix in="SourceAlpha" type="matrix" values="0 0 0 0 0 0 0 0 0 0 0 0 0 0 0 0 0 0 127 0"/><feMorphology radius="-5" operator="dilate" in="SourceAlpha" result="effect1_dropShadow"/><feOffset dy="2" dx="0"/><feGaussianBlur stdDeviation="2.5"/><feColorMatrix type="matrix" values="0 0 0 0 0.6808779835700989 0 0 0 0 0.6808779835700989 0 0 0 0 0.6808779835700989 0 0 0 0.11999999731779099 0"/><feBlend mode="normal" in2="BackgroundImageFix" result="effect1_dropShadow"/><feBlend mode="normal" in="SourceGraphic" in2="effect1_dropShadow" result="shape"/></filter></defs><g><g filter="url(#master_svg0_22_6409)"><path d="M168.5,19.2823Q168.289,19.6097,168.057,19.9232Q167.826,20.2367,167.575,20.5352Q167.325,20.8338,167.056,21.1161Q166.788,21.398400000000002,166.502,21.6635Q166.216,21.9285,165.915,22.1752Q165.613,22.422,165.296,22.6494Q164.98,22.8769,164.65,23.0842Q164.32,23.291600000000003,163.978,23.477899999999998Q163.636,23.6643,163.283,23.829Q162.929,23.9936,162.567,24.136Q162.204,24.2784,161.833,24.3979Q161.462,24.5173,161.084,24.6135Q160.707,24.7097,160.324,24.7821Q159.941,24.8545,159.554,24.903Q159.168,24.9515,158.779,24.9757Q158.39,25,158,25Q157.693,25,157.387,24.9849Q157.08,24.9699,156.775,24.9398Q156.469,24.9097,156.166,24.8647Q155.862,24.8197,155.561,24.7598Q155.26,24.6999,154.963,24.6254Q154.665,24.5508,154.371,24.4618Q154.078,24.3727,153.789,24.2693Q153.5,24.1659,153.216,24.0485Q152.933,23.9311,152.656,23.7999Q152.378,23.6687,152.108,23.524Q151.837,23.3794,151.574,23.221600000000002Q151.311,23.0638,151.055,22.8934Q150.8,22.7229,150.554,22.540100000000002Q150.307,22.357300000000002,150.07,22.162599999999998Q149.833,21.968,149.606,21.7619Q149.378,21.555799999999998,149.161,21.3388Q148.944,21.1219,148.738,20.8945Q148.532,20.667099999999998,148.337,20.4299Q148.143,20.192700000000002,147.96,19.946199999999997Q147.777,19.6998,147.607,19.4446Q147.436,19.189500000000002,147.278,18.926299999999998Q147.121,18.6631,146.976,18.3925Q146.831,18.1218,146.7,17.84444Q146.569,17.56704,146.451,17.283540000000002Q146.334,17.00004,146.231,16.71112Q146.127,16.4222,146.038,16.12856Q145.949,15.83491,145.875,15.53725Q145.8,15.23959,145.74,14.93863Q145.68,14.63767,145.635,14.33413Q145.59,14.03059,145.56,13.72521Q145.53,13.419830000000001,145.515,13.11335Q145.5,12.80686,145.5,12.5Q145.5,11.3459,145.711,10.211310000000001Q145.923,9.07672,146.338,8.000000000000002L17.5,8Q17.25451,8,17.009320000000002,8.0120454Q16.76413,8.0240909,16.51983,8.0481527Q16.27552,8.0722146,16.032690000000002,8.108235Q15.78987,8.144255,15.5491,8.192147Q15.30833,8.240039,15.0702,8.299687Q14.83207,8.359336,14.59715,8.430597Q14.36224,8.501857,14.1311,8.584559Q13.89996,8.667261,13.67316,8.761205Q13.44636,8.855148,13.224450000000001,8.960107Q13.00253,9.06507,12.78603,9.18079Q12.56953,9.29651,12.35897,9.42271Q12.14841,9.54892,11.9443,9.6853Q11.740179999999999,9.82169,11.543009999999999,9.96792Q11.34583,10.11416,11.15607,10.2699Q10.9663,10.42563,10.78441,10.590489999999999Q10.60252,10.75535,10.42893,10.92893Q10.25535,11.10252,10.090489999999999,11.28441Q9.92563,11.4663,9.7699,11.65607Q9.61416,11.84583,9.46792,12.043009999999999Q9.32169,12.240179999999999,9.1853,12.4443Q9.04892,12.64841,8.92271,12.85897Q8.79651,13.06953,8.68079,13.28603Q8.56507,13.50253,8.460107,13.724450000000001Q8.355148,13.94636,8.261205,14.17316Q8.167261,14.39996,8.084559,14.6311Q8.001857,14.86224,7.930597,15.09715Q7.859336,15.33207,7.799687,15.5702Q7.740039,15.80833,7.692147,16.0491Q7.644255,16.28987,7.608235,16.532690000000002Q7.5722146,16.77552,7.5481527,17.01983Q7.5240909,17.26413,7.5120454,17.509320000000002Q7.5,17.75451,7.5,18L7.5,76Q7.5,76.2455,7.5120454,76.4907Q7.5240909,76.7359,7.5481527,76.9802Q7.5722146,77.2245,7.608235,77.4673Q7.644255,77.7101,7.692147,77.9509Q7.740039,78.1917,7.799687,78.4298Q7.859336,78.6679,7.930597,78.9028Q8.001857,79.1377,8.084559,79.3689Q8.167261,79.6,8.261205,79.8268Q8.355148,80.0536,8.460107,80.2755Q8.56507,80.4974,8.68079,80.714Q8.79651,80.9305,8.92271,81.141Q9.04892,81.3516,9.1853,81.5557Q9.32169,81.7598,9.46792,81.957Q9.61416,82.1542,9.7699,82.3439Q9.92563,82.5337,10.090489999999999,82.7156Q10.25535,82.8975,10.42893,83.0711Q10.60252,83.2447,10.78441,83.4095Q10.9663,83.5744,11.15607,83.7301Q11.34583,83.8858,11.543009999999999,84.0321Q11.740179999999999,84.1783,11.9443,84.3147Q12.14841,84.4511,12.35897,84.5773Q12.56953,84.7035,12.78603,84.8192Q13.00253,84.9349,13.224450000000001,85.0399Q13.44636,85.1449,13.67316,85.2388Q13.89996,85.3327,14.1311,85.4154Q14.36224,85.4981,14.59715,85.5694Q14.83207,85.6407,15.0702,85.7003Q15.30833,85.76,15.5491,85.8078Q15.78987,85.8557,16.032690000000002,85.8918Q16.27552,85.9278,16.51983,85.9518Q16.76413,85.9759,17.009320000000002,85.9879Q17.25451,86,17.5,86L158.5,86Q158.745,86,158.991,85.9879Q159.236,85.9759,159.48,85.9518Q159.724,85.9278,159.967,85.8918Q160.21,85.8557,160.451,85.8078Q160.692,85.76,160.93,85.7003Q161.168,85.6407,161.403,85.5694Q161.638,85.4981,161.869,85.4154Q162.1,85.3327,162.327,85.2388Q162.554,85.1449,162.776,85.0399Q162.997,84.9349,163.214,84.8192Q163.43,84.7035,163.641,84.5773Q163.852,84.4511,164.056,84.3147Q164.26,84.1783,164.457,84.0321Q164.654,83.8858,164.844,83.7301Q165.034,83.5744,165.216,83.4095Q165.397,83.2447,165.571,83.0711Q165.745,82.8975,165.909,82.7156Q166.074,82.5337,166.23,82.3439Q166.386,82.1542,166.532,81.957Q166.678,81.7598,166.815,81.5557Q166.951,81.3516,167.077,81.141Q167.203,80.9305,167.319,80.714Q167.435,80.4974,167.54,80.2755Q167.645,80.0536,167.739,79.8268Q167.833,79.6,167.915,79.3689Q167.998,79.1377,168.069,78.9028Q168.141,78.6679,168.2,78.4298Q168.26,78.1917,168.308,77.9509Q168.356,77.7101,168.392,77.4673Q168.428,77.2245,168.452,76.9802Q168.476,76.7359,168.488,76.4907Q168.5,76.2455,168.5,76L168.5,19.2823Z" fill-rule="evenodd" fill="#FFFFFF" fill-opacity="1"/></g><g><ellipse cx="159.5" cy="11" rx="11" ry="11" fill="#FFFFFF" fill-opacity="1"/></g></g></svg>